G04 Layer: BoardOutline*
G04 EasyEDA v6.2.46, 2019-11-22T14:34:10+02:00*
G04 5335dd83e34847d8b21879a5d4bfddff,7760fd71129a401ca35dedc6c0295012,10*
G04 Gerber Generator version 0.2*
G04 Scale: 100 percent, Rotated: No, Reflected: No *
G04 Dimensions in millimeters *
G04 leading zeros omitted , absolute positions ,3 integer and 3 decimal *
%FSLAX33Y33*%
%MOMM*%
G90*
G71D02*

%ADD10C,0.254000*%
G54D10*
G75*
G01X26000Y41570D02*
G02X29000Y38570I0J-3000D01*
G01*
G01X28999Y9069D02*
G01X28999Y38569D01*
G75*
G01X29000Y9070D02*
G02X26000Y6070I-3000J0D01*
G01*
G01X23999Y6069D02*
G01X25999Y6069D01*
G75*
G01X3000Y6070D02*
G02X0Y9070I0J3000D01*
G01*
G01X1Y38569D02*
G01X1Y9069D01*
G75*
G01X0Y38570D02*
G02X3000Y41570I3000J0D01*
G01*
G01X25999Y41569D02*
G01X17499Y41569D01*
G01X11499Y41569D02*
G01X3125Y41569D01*
G01X11499Y44569D02*
G01X11499Y41569D01*
G01X17499Y41569D02*
G01X17499Y44569D01*
G75*
G01X14500Y47570D02*
G02X17500Y44570I0J-3000D01*
G01*
G75*
G01X11500Y44570D02*
G02X14500Y47570I3000J0D01*
G01*
G01X10987Y2999D02*
G01X10987Y5999D01*
G01X4988Y6060D02*
G01X4988Y3060D01*
G75*
G01X7988Y54D02*
G02X4988Y3054I0J3000D01*
G01*
G75*
G01X10988Y3000D02*
G02X7988Y0I-3000J0D01*
G01*
G01X24000Y3084D02*
G01X24000Y6084D01*
G01X18000Y6084D02*
G01X18000Y3084D01*
G75*
G01X21000Y85D02*
G02X18000Y3085I0J3000D01*
G01*
G75*
G01X24000Y3085D02*
G02X21000Y85I-3000J0D01*
G01*
G01X3053Y6073D02*
G01X4999Y6069D01*
G01X10999Y6069D02*
G01X17999Y6069D01*

%LPD*%
M00*
M02*
