G04 Layer: TopSolderMaskLayer*
G04 EasyEDA v6.2.46, 2019-11-22T14:34:10+02:00*
G04 5335dd83e34847d8b21879a5d4bfddff,7760fd71129a401ca35dedc6c0295012,10*
G04 Gerber Generator version 0.2*
G04 Scale: 100 percent, Rotated: No, Reflected: No *
G04 Dimensions in millimeters *
G04 leading zeros omitted , absolute positions ,3 integer and 3 decimal *
%FSLAX33Y33*%
%MOMM*%
G90*
G71D02*

%ADD20C,1.943100*%
%ADD22C,1.727200*%
%ADD24C,1.498600*%
%ADD25C,4.703191*%

%LPD*%
G54D20*
G01X26560Y33359D02*
G01X25299Y33359D01*
G01X2439Y15579D02*
G01X3700Y15579D01*
G01X2439Y18119D02*
G01X3700Y18119D01*
G01X2439Y20659D02*
G01X3700Y20659D01*
G01X2439Y23199D02*
G01X3700Y23199D01*
G01X2439Y25739D02*
G01X3700Y25739D01*
G01X2439Y28279D02*
G01X3700Y28279D01*
G01X2439Y30819D02*
G01X3700Y30819D01*
G01X2439Y33359D02*
G01X3700Y33359D01*
G01X26560Y15579D02*
G01X25299Y15579D01*
G01X26560Y18119D02*
G01X25299Y18119D01*
G01X26560Y20659D02*
G01X25299Y20659D01*
G01X26560Y23199D02*
G01X25299Y23199D01*
G01X26560Y25739D02*
G01X25299Y25739D01*
G01X26560Y28279D02*
G01X25299Y28279D01*
G01X26560Y30819D02*
G01X25299Y30819D01*
G36*
G01X9854Y35354D02*
G01X9854Y37081D01*
G01X11582Y37081D01*
G01X11582Y35354D01*
G01X9854Y35354D01*
G37*
G54D22*
G01X13258Y36216D03*
G01X15798Y36216D03*
G01X18338Y36216D03*
G36*
G01X10080Y7879D02*
G01X10080Y9377D01*
G01X11579Y9377D01*
G01X11579Y7879D01*
G01X10080Y7879D01*
G37*
G54D24*
G01X13369Y8627D03*
G01X15909Y8627D03*
G01X18449Y8627D03*
G54D25*
G01X14500Y44406D03*
G01X8000Y3164D03*
G01X21000Y3248D03*
M00*
M02*
