;Layer: Drill PTH
;EasyEDA v6.2.46, 2019-11-22T14:34:10+02:00
;5335dd83e34847d8b21879a5d4bfddff,7760fd71129a401ca35dedc6c0295012,10
;Gerber Generator version 0.2
M48
METRIC,LZ,000.000
;Holesize 1 = 0.901 METRIC
T01C0.901
;Holesize 2 = 0.915 METRIC
T02C0.915
;Holesize 3 = 3.002 METRIC
T03C3.002
%
G05
G90
T01
X+025930Y+033359
X+003070Y+015579
X+003070Y+018119
X+003070Y+020659
X+003070Y+023199
X+003070Y+025739
X+003070Y+028279
X+003070Y+030819
X+003070Y+033359
X+025930Y+015579
X+025930Y+018119
X+025930Y+020659
X+025930Y+023199
X+025930Y+025739
X+025930Y+028279
X+025930Y+030819
X+010829Y+008627
X+013369Y+008627
X+015909Y+008627
X+018449Y+008627
T02
X+010717Y+036216
X+013258Y+036216
X+015798Y+036216
X+018338Y+036216
T03
X+014500Y+044406
X+008000Y+003164
X+021000Y+003248
M30
